<?xml version="1.0" encoding="UTF-8"?>
<svg xmlns="http://www.w3.org/2000/svg" fill="none" viewBox="0 0 1200 417" width="1200" height="417"><g fill="#FAFAFA" clip-path="url(#clip0_2180_10647)"><path d="M69.04 297.518c5.071 13.457 12.092 24.964 21.064 34.52 8.971 9.557 19.6 16.87 31.886 21.941 12.288 5.071 25.647 7.606 40.08 7.606 14.042 0 27.206-2.633 39.494-7.9 12.287-5.266 23.013-12.677 32.179-22.233 9.166-9.557 16.285-20.965 21.356-34.227 5.071-13.262 7.606-28.083 7.606-44.467V0h61.434v409.561H263.29V371.53c-13.652 14.432-29.743 25.549-48.27 33.351-18.529 7.8-38.518 11.701-59.971 11.701-21.845 0-42.225-3.804-61.143-11.409-18.917-7.606-35.3-18.43-49.147-32.472-13.846-14.043-24.769-30.911-32.764-50.61C3.998 302.393 0 280.453 0 256.268V0h61.434v252.758c0 16.384 2.535 31.302 7.606 44.76zM430.035 0v149.197c13.652-13.652 29.45-24.475 47.392-32.472 17.943-7.997 37.446-11.995 58.508-11.995 21.845 0 42.321 4.095 61.435 12.286 19.112 8.192 35.689 19.309 49.731 33.351 14.043 14.043 25.16 30.62 33.351 49.732 8.192 19.114 12.286 39.397 12.286 60.85 0 21.452-4.094 41.638-12.286 60.555-8.191 18.919-19.308 35.4-33.351 49.44-14.042 14.043-30.619 25.16-49.731 33.351-19.114 8.191-39.592 12.286-61.435 12.286-21.063 0-40.663-3.998-58.8-11.995-18.138-7.996-34.034-18.82-47.685-32.472v37.446h-58.509V0h59.094zm6.728 301.32c5.265 12.483 12.58 23.404 21.941 32.766 9.362 9.361 20.283 16.773 32.765 22.234 12.483 5.46 25.939 8.191 40.372 8.191 14.042 0 27.303-2.731 39.785-8.191 12.481-5.461 23.304-12.872 32.473-22.234 9.166-9.36 16.479-20.283 21.94-32.766 5.461-12.482 8.191-25.938 8.191-40.371 0-14.432-2.73-27.987-8.191-40.664-5.461-12.677-12.774-23.695-21.94-33.057-9.167-9.36-19.99-16.675-32.473-21.94-12.483-5.265-25.744-7.9-39.785-7.9-14.042 0-27.304 2.633-39.786 7.9-12.481 5.267-23.403 12.58-32.765 21.94-9.361 9.362-16.772 20.38-22.233 33.057-5.461 12.677-8.191 26.232-8.191 40.664-.002 14.433 2.632 27.889 7.897 40.371zM726.082 200.686c7.801-18.723 18.529-35.203 32.18-49.44 13.65-14.237 29.84-25.451 48.563-33.642 18.722-8.191 39.005-12.286 60.848-12.286 21.454 0 41.347 3.901 59.68 11.701 18.332 7.801 34.129 18.626 47.392 32.473 13.262 13.846 23.599 30.23 31.005 49.147 7.42 18.918 11.12 39.494 11.12 61.728v19.308H774.06c1.951 12.092 5.852 23.306 11.702 33.641 5.852 10.336 13.164 19.308 21.94 26.914 8.777 7.607 18.723 13.556 29.84 17.845 11.117 4.291 22.915 6.437 35.398 6.437 35.496 0 64.166-14.628 86.009-43.883l42.711 31.594c-14.822 19.894-33.154 35.497-54.997 46.808-21.845 11.311-46.418 16.967-73.722 16.967-22.234 0-43.003-3.902-62.312-11.702-19.308-7.8-36.08-18.723-50.317-32.766-14.237-14.043-25.451-30.522-33.642-49.439-8.191-18.917-12.287-39.494-12.287-61.727-.003-21.062 3.899-40.955 11.699-59.678zm82.205-23.112c-16.577 13.847-27.596 32.278-33.057 55.291h181.963c-5.071-23.013-15.895-41.444-32.473-55.291-16.578-13.846-35.983-20.77-58.216-20.77-22.234 0-41.639 6.924-58.217 20.77zM1127.45 184.302c-12.48 13.652-18.72 32.179-18.72 55.584v169.677h-59.1V111.167h58.51v36.861c7.41-12.092 17.06-21.649 28.96-28.67 11.9-7.022 26.04-10.533 42.42-10.533H1200v54.999h-24.58c-19.5.001-35.49 6.826-47.97 20.478z"/></g><defs><clipPath id="clip0_2180_10647"><path fill="#fff" d="M0 0h1200v416.582H0z"/></clipPath></defs></svg>
